<?xml version="1.0" encoding="UTF-8"?><svg id="Layer_2" xmlns="http://www.w3.org/2000/svg" viewBox="0 0 64.1 16.92"><defs><style>.cls-1{fill:#2cbcbc;}</style></defs><g id="OBJECTS"><g id="Layer_2-2"><g id="Layer_1-2"><path class="cls-1" d="M63.59,15.08c-.53,.47-1.22,.72-1.93,.7-.76,0-1.34-.21-1.73-.63s-.58-1.04-.58-1.85V6.11c1.2-.37,2.36-.75,3.47-1.16v-1.06c-1.1,.42-2.25,.81-3.47,1.19V1.54h-1.19v3.9c-.99,.28-2.01,.56-3.07,.81-.16-.26-.36-.51-.58-.73-.91-.91-2.14-1.36-3.7-1.36-1.06-.03-2.1,.23-3.02,.74-.84,.47-1.5,1.19-1.92,2.06v-2.7h-1.14v3.9c-3.3,.43-6.74,.75-10.28,.92-.23-.01-.42-.17-.48-.39v-.03c-.1-.28,.06-.58,.35-.67,.05-.02,.1-.02,.16-.02l7.32-1.06c1.03-.14,1.62-.56,1.8-1.29,.29-1.19,.41-1.51,.41-2.5,0-2.08-1.88-2.98-3.04-2.98s-1.52,.7-3.09,.7-1.92-.71-3.09-.71-3.03,.91-3.03,2.99c0,1.37,.57,3.55,.95,4.85,.09,.32,.19,.77,.35,1.17-.58,.02-1.15,.04-1.73,.05,.02-.27,.04-.55,.04-.82,.03-1.51-.36-3-1.12-4.31-.74-1.27-1.83-2.3-3.14-2.98C25.68,.34,24.09-.03,22.48,0h-4.97V8.89c-2.25-.16-4.44-.38-6.59-.65v-1.17h-.8v3.24h.8v-1.08c1.48,.18,2.98,.34,4.5,.47-.66,3.91-4.37,6.55-8.28,5.89C3.22,14.93,.58,11.22,1.24,7.31,1.91,3.39,5.61,.76,9.53,1.42c1.26,.21,2.44,.76,3.42,1.58l.78-.8C10.23-.79,4.98-.38,2,3.11-.99,6.6-.58,11.85,2.91,14.84c3.49,2.99,8.74,2.57,11.73-.92,1-1.17,1.65-2.59,1.89-4.1,.33,.02,.65,.04,.98,.07v6.83h4.96c1.6,.03,3.19-.34,4.61-1.08,1.3-.68,2.39-1.7,3.14-2.97,.45-.77,.77-1.61,.95-2.49,4.53-.11,9.06-.46,13.55-1.04v7.57h1.19v-6.64c0-1.47,.41-2.65,1.26-3.53s2-1.32,3.46-1.32c1.27,0,2.27,.37,2.97,1.1s1.06,1.8,1.06,3.2v7.18h1.18v-7.29c.01-.77-.1-1.54-.35-2.27,.91-.22,1.78-.45,2.64-.7v6.95c0,1.06,.3,1.9,.89,2.5,.59,.6,1.42,.9,2.51,.9,.48,0,.96-.08,1.42-.23,.42-.13,.81-.35,1.13-.65l-.51-.84ZM32.64,3.11c0-1.57,1.47-2.1,2.15-2.1,.33,.01,.66,.09,.96,.24,.67,.31,1.39,.46,2.13,.46,.73,0,1.46-.15,2.12-.46,.3-.15,.63-.23,.96-.24,.67,0,2.15,.53,2.15,2.1,0,.74,.01,.72-.36,2.17-.09,.4-.45,.63-.97,.73l-7.32,1.08c-.37,0-.73,.14-.99,.4-.53-1.91-.83-3.45-.83-4.37ZM18.73,1.11h3.66c1.41-.03,2.81,.28,4.08,.91,1.14,.57,2.08,1.47,2.72,2.57,.65,1.15,.98,2.45,.96,3.77,0,.29-.02,.58-.04,.86-.87,.02-1.76,.02-2.64,.02-.78,0-1.56-.01-2.33-.02v-1.19h-.79v1.17c-.21,0-.43-.01-.64-.01v-1.16h-.8v1.13c-1.4-.04-2.79-.11-4.16-.21V1.11h0Zm10.46,11.02c-.64,1.1-1.58,1.99-2.72,2.57-1.26,.63-2.66,.95-4.08,.92h-3.66v-5.66c1.38,.08,2.76,.15,4.16,.19v1.13h.8v-1.11h.64v1.09h.8v-1.05c.78,.01,1.55,.02,2.33,.02,.82,0,1.65,0,2.47-.02-.14,.68-.39,1.33-.75,1.93Z"/><path class="cls-1" d="M40.84,11.23h-.45l.14-.56h-5.27s.05,.21,.14,.56h-.45c-.16,0-.28,.13-.28,.28,0,.16,.13,.28,.28,.28h.59c.04,.17,.08,.36,.14,.56h4.46c.04-.21,.09-.38,.14-.56h.59c.16,0,.28-.13,.28-.28h0c0-.16-.13-.28-.29-.28Z"/><path class="cls-1" d="M40.31,13.45h-.45c.04-.19,.09-.37,.14-.56h-4.2c.04,.19,.09,.37,.14,.56h-.45c-.16,0-.28,.13-.28,.28s.13,.28,.28,.28h.59c.04,.19,.09,.38,.14,.55h3.4c.04-.18,.08-.36,.14-.55h.59c.16,0,.28-.12,.29-.28,0,0,0,0,0,0-.01-.16-.15-.28-.31-.28Z"/><path class="cls-1" d="M36.46,15.76c.21,.81,.76,1.16,1.41,1.16,.7,.02,1.3-.47,1.41-1.16,.03-.14,.08-.36,.16-.64h-3.14c.07,.28,.13,.5,.16,.64Z"/></g></g></g></svg>